<?xml version="1.0" encoding="utf-8"?>
<!-- Generator: Adobe Illustrator 19.0.0, SVG Export Plug-In . SVG Version: 6.00 Build 0)  -->
<svg version="1.1" id="Layer_2" xmlns="http://www.w3.org/2000/svg" xmlns:xlink="http://www.w3.org/1999/xlink" x="0px" y="0px"
	 viewBox="950 -529 1920 1080" style="enable-background:new 950 -529 1920 1080;" xml:space="preserve">
<style type="text/css">
	.st0{fill:#FFFFFF;}
</style>
<g>
	<path class="st0" d="M1956.4,272.9l-62.9-38.9c-1.3-0.8-2-2.4-1.6-3.8c4.1-17.3-2.2-39.3-4.9-47.3c-0.6-1.9-0.1-4.1,1.4-5.5
		l43.1-40c-53.6-14.5-80-33.7-80-33.7l-7.3,2.6c-13.6-22.1-41-35-41-35l0.5-9.6c0.1-1.4-0.5-2.8-1.5-3.8
		c-32-31.3-38.4-67.9-39.2-73.7c-0.1-0.4-0.5-0.8-0.9-0.8h-3.2l-36,62.3c-0.6,1.1-1.9,1.7-3.2,1.6c-22.2-2.7-45.2,4.1-51.2,6.1
		c-0.9,0.3-2,0-2.6-0.7l-50.6-53.8c-0.8-0.9-2.1-1.1-3.2-0.5l-35.4,20.4c-1.7,1-2.6,3-2.1,5l18,68.2c0.2,0.8-0.1,1.5-0.7,2
		c-14.2,10.5-28.6,34.2-32.8,41.4c-0.8,1.3-2.2,2.1-3.7,2l-70-3c-2.1-0.1-3.9,1.3-4.5,3.3l-10.6,38.7c-0.6,2.1,0.3,4.3,2.2,5.4
		l60.8,36.9c0.9,0.5,1.4,1.6,1.3,2.6c-2.3,22.8,2.5,42.8,4.2,49.1c0.4,1.3,0,2.7-1,3.6l-53.3,52.4l23.8,39.2l71.7-17.9
		c1.4-0.3,2.8,0.2,3.6,1.4c11.8,18.5,31.7,28.6,38.3,31.5c1.3,0.6,2.1,1.9,2,3.3l-3,70.7c-0.1,2.1,1.2,4,3.3,4.6l38.1,11.4
		c1.6,0.5,3.3-0.2,4.2-1.6l37.9-61.7c0.9-1.5,2.7-2.4,4.5-2.1c19.9,2.7,40-3,47.2-5.4c1.7-0.6,3.7-0.1,5,1.2l50.5,52.3
		c1,1,2.4,1.2,3.6,0.5l35-20.2c1.2-0.7,1.8-2.1,1.4-3.4l-17.3-68.7c-0.4-1.5,0.2-3,1.3-4c16.7-13.8,28.3-32.8,31.9-39.2
		c0.8-1.4,2.2-2.2,3.8-2.1l71.3,3.1c1.6,0.1,3.1-1,3.5-2.6l11.3-40.7C1957.8,274.7,1957.4,273.5,1956.4,272.9z M1713.7,326.2
		c-55,0-99.6-44.5-99.6-99.4s44.6-99.4,99.6-99.4s99.6,44.5,99.6,99.4S1768.7,326.2,1713.7,326.2z"/>
	<path class="st0" d="M1752.4-105.4c-54.9,0.2-99.5-44.8-99.7-99.8c-0.2-55,44.1-99.8,99-100c36.4-0.1,68.2,19.3,85.6,48.5
		c0,0,59.2-52.3,142.6-48.1c0.9-0.8,1-2.1,0.5-3.2l-20.6-35.3c-1-1.7-3.1-2.6-5-2.1l-68.1,18.3c-0.8,0.2-1.5-0.1-2-0.7
		c-10.7-14.2-34.5-28.5-41.7-32.6c-1.3-0.7-2.1-2.2-2-3.7l2.8-70c0.1-2.1-1.3-3.9-3.3-4.5l-38.7-10.5c-2.1-0.6-4.3,0.3-5.4,2.2
		l-36.6,61c-0.5,0.9-1.6,1.4-2.6,1.3c-22.8-2.2-42.8,2.6-49.1,4.4c-1.3,0.4-2.7,0-3.6-1l-52.7-53.1l-39.1,24l18.2,71.6
		c0.3,1.4-0.2,2.8-1.4,3.6c-18.5,11.8-28.4,31.8-31.3,38.4c-0.6,1.3-1.9,2.1-3.3,2.1l-70.7-2.8c-2.1-0.1-4,1.3-4.6,3.3l-11.2,38.2
		c-0.5,1.6,0.2,3.3,1.6,4.2l61.9,37.7c1.5,0.9,2.4,2.7,2.2,4.4c-2.6,19.9,3.2,40,5.6,47.2c0.6,1.7,0.1,3.7-1.2,5l-52.1,50.7
		c-1,1-1.2,2.5-0.5,3.6l20.3,34.9c0.7,1.2,2.1,1.8,3.4,1.4l68.7-17.6c1.5-0.4,3,0.1,4,1.3c13.9,16.6,32.9,28.1,39.3,31.7
		c1.4,0.8,2.2,2.2,2.1,3.8l-2.8,71.3c-0.1,1.6,1,3.1,2.6,3.5l40.7,11.1c1.1,0.3,2.3-0.2,3-1.2l37.3-63c0.8-1.3,2.3-2,3.8-1.6
		c3.3,0.8,8.1,1.1,11.5,1.3C1759.7-26.1,1748.9-53,1752.4-105.4z"/>
	<path class="st0" d="M2131-239.2c0,0,14.9-3.7,34.6,8.2c16,9.7,27.6,25.4,32.6,43.5c9.4,34.2-8.6,56.8-8.6,56.8
		c14.8,56.5,2,96.2-1.1,104.6c-0.4,1-0.1,2.2,0.7,2.9l18,17.6c0.8,0.8,2.1,0.9,3,0.3l25.5-17.5c0.7-0.5,1-1.3,0.8-2.1l-14.1-49.8
		c-0.3-1.1,0-2.2,0.9-2.9c12.6-9.9,20.4-24.6,22.5-28.9c0.4-0.8,1.1-1.2,2-1.2h55.2c1.3-14.5,7.9-33.5,7.9-33.5l-49.8-27
		c-0.8-0.4-1.2-1.3-1-2.2c3-15.6-3-31.1-5-35.6c-0.4-0.8-0.2-1.7,0.4-2.3l36.6-38.2c1-1,1.1-2.5,0.3-3.7l-16.3-25
		c-0.8-1.2-2.3-1.8-3.7-1.3l-51,16c-8.8-14.5-32.6-22.5-32.6-22.5v-56c-16.7-2.2-33.1-9.3-33.1-9.3l-26.4,49.8
		c-15.9-3.5-39.2,5.7-39.2,5.7l-40.5-38.8L2021-314l4.4,16.3C2025.3-297.9,2080.4-291.2,2131-239.2z"/>
	<path class="st0" d="M1975-282.4c-112,0-202.7,90-202.7,201s90.8,201,202.7,201c112,0,202.8-90,202.8-201S2087-282.4,1975-282.4z
		 M1975,79.9c-89.9,0-162.7-72.2-162.7-161.3s72.9-161.3,162.7-161.3s162.7,72.2,162.7,161.3S2064.9,79.9,1975,79.9z"/>
	<path class="st0" d="M1973.4-238.4c-86.8,0-157.2,69.8-157.2,155.9s70.4,155.9,157.2,155.9c86.8,0,157.2-69.8,157.2-155.9
		S2060.2-238.4,1973.4-238.4z M1973.4,62.4c-80.7,0-146.1-64.9-146.1-144.9s65.4-144.9,146.1-144.9c80.7,0,146.1,64.9,146.1,144.9
		S2054.1,62.4,1973.4,62.4z"/>
	<path class="st0" d="M1922.7-216.9c-156.6,91.5-62.6,218.1-52.1,231.3c0.5,0.6,1.4,0.8,2.1,0.3l7.8-5.6c0.5-0.3,0.7-0.9,0.5-1.5
		l-20.5-80c-0.2-0.9,0.1-1.8,0.8-2.4c5-3.9,24.4-20,38.1-45.2c0.5-0.9,1.5-1.5,2.5-1.5l82.5,1.6c1.5,0,2.9-1,3.3-2.5l12.3-44.1
		c0.4-1.3-0.2-2.8-1.4-3.5l-70-42.6c-0.6-0.4-1.1-1-1.4-1.7C1926.7-215.6,1925.5-217.6,1922.7-216.9z"/>
	<path class="st0" d="M2067.4-188.8c-6.3-6.6-42.9-40.6-114.3-34.8c-1.4,0.1-2.5,1.2-2.8,2.5l-1.8,10.4l52.7,28.6
		c1.3,0.7,2.1,2.1,1.9,3.6c-0.6,7.4-3,24.6,4.3,40.6c0.6,1.2,0.3,2.7-0.7,3.6L1965-92.4c-0.7,0.7-0.8,1.7-0.3,2.6l18.8,29.1
		c0.6,1,1.8,1.4,3,1.1l56.3-17c1.1-0.3,2.2,0,2.9,0.9c4,4.9,18.3,20.9,32.4,23.9c1,0.2,1.8,1.1,1.8,2.2V7.6h4.4
		c0,0,39.3-46,31.1-113.9c-0.1-1.2-0.9-2.3-2.1-2.8c-8.8-3.8-46.2-23.3-45-77.2C2068.4-187.2,2068.1-188.1,2067.4-188.8z"/>
	<path class="st0" d="M2071.8,107c0,0,26.1-10.6,44.8-30.4l31.9,46.3l-43.6,31.7L2071.8,107z"/>
	<path class="st0" d="M2175.3,139.3L2349,388c3.6,5.1,2.4,12.1-2.6,15.8l-45.3,33.3c-5.7,4.2-13.8,2.9-17.9-3l-174-251.7
		c-4.6-6.6-2.9-15.7,3.7-20.3l39-27C2159.5,129.8,2169.9,131.7,2175.3,139.3z"/>
</g>
</svg>
